<svg width="3150" height="1550" viewBox="0 0 3150 1550" fill="none" xmlns="http://www.w3.org/2000/svg">
<g clip-path="url(#clip0_11_70)">
<path d="M3150 1550H0V0H3150V1550ZM1556.67 716.314H1549.46V746.608H1556.67V812.391C1556.67 822.344 1564.78 831 1576.05 831H1624.72C1635.54 831 1644.1 823.21 1644.1 812.391V754.398H1605.34V800.272H1595.88V746.608H1644.55V716.314H1595.88V708.092H1556.67V716.314ZM1376.41 708.092C1366.5 708.092 1357.03 715.449 1357.03 727.999V746.176H1395.79V738.386H1405.25V753.966H1376.41C1364.69 753.966 1357.03 763.055 1357.03 773.874V811.958C1357.03 822.777 1365.6 830.567 1376.41 830.567H1444.46V727.999C1444.46 716.747 1436.35 708.092 1425.08 708.092H1376.41ZM1454.83 811.958C1454.83 821.046 1462.49 830.567 1474.2 830.567H1523.32C1533.69 830.567 1542.25 821.479 1542.25 811.958V708.092H1503.5V800.272H1493.58V708.092H1454.83V811.958ZM1672.49 708.092C1660.32 708.092 1653.11 717.18 1653.11 727.999V811.958C1653.11 821.046 1660.32 830.567 1672.49 830.567H1721.61C1731.07 830.567 1740.54 823.21 1740.54 811.958V727.999C1740.54 717.613 1733.78 708.092 1721.16 708.092H1672.49ZM1405.7 800.272H1396.24V784.693H1405.7V800.272ZM1701.78 800.272H1692.32V738.818H1701.78V800.272ZM1597.68 578.259C1586.42 578.259 1578.3 587.347 1578.3 596.868V680.395C1578.3 690.348 1585.97 699.004 1597.68 699.004H1646.35C1655.82 699.004 1665.73 692.079 1665.73 680.395V661.352H1626.52V668.709H1617.06V653.562H1665.73V596.868C1665.73 585.616 1655.37 578.259 1646.35 578.259H1597.68ZM1694.57 578.259C1684.66 578.259 1675.19 586.049 1675.19 596.868V699.004H1714.4V646.205H1762.62V615.91H1714.4V608.554H1762.62V578.259H1694.57ZM1384.07 592.108H1376.41V622.402H1384.07V679.962C1384.07 689.05 1391.73 698.571 1403.45 698.571H1452.12C1463.84 698.571 1471.5 689.483 1471.5 679.962L1471.05 680.395V630.192H1432.29V668.709H1422.83V622.402H1471.5V592.108H1422.83V577.826H1384.07V592.108ZM1383.62 568.306H1422.38V503.389H1431.84V559.217C1431.84 568.738 1439.5 577.826 1452.12 577.826H1480.51V698.571H1519.27V607.688H1528.73V698.571H1567.94V596.436C1567.94 586.049 1559.38 577.826 1548.56 577.826H1519.72V557.053H1471.05V503.389C1471.05 497.33 1467.89 491.703 1462.94 488.241C1470.15 483.481 1471.05 477.422 1471.05 473.527V447.128C1471.05 436.741 1462.49 428.519 1451.67 428.519H1383.62V568.306ZM1777.49 592.108H1769.83V622.402H1777.49V679.962C1777.49 688.617 1784.7 698.571 1796.87 698.571H1845.54C1857.71 698.571 1864.92 689.05 1864.92 679.962L1864.47 680.395V630.192H1825.71V668.709H1816.25V622.402H1864.92V592.108H1816.25V577.826H1777.49V592.108ZM1626.07 623.268H1616.61V608.12H1626.07V623.268ZM1305.66 428.519C1295.29 428.519 1286.28 436.741 1286.28 447.128V530.221C1286.28 540.174 1294.39 548.83 1305.66 548.83H1334.5V557.053H1285.83V586.915H1353.88C1365.14 586.915 1373.26 577.827 1373.26 568.306H1373.71V428.519H1305.66ZM1578.3 548.83H1617.06V457.947H1626.52V548.83H1665.73V447.128H1665.28C1665.28 438.04 1657.62 428.519 1645.9 428.519C1634.19 428.519 1622.92 431.115 1617.06 435.876V428.519H1578.3V548.83ZM1723.41 428.519H1694.57C1685.56 428.519 1675.19 435.443 1675.19 447.128V530.221C1675.19 541.04 1684.21 548.83 1694.57 548.83H1762.62V398.224H1723.41V428.519ZM1499.89 428.519C1487.72 428.519 1480.51 438.04 1480.51 447.128V465.737H1519.27V457.947H1528.73V473.095C1528.73 473.095 1510.71 473.095 1499.89 473.095C1489.07 473.095 1480.51 481.75 1480.51 491.704V529.788C1480.51 540.607 1489.53 548.397 1499.89 548.397H1567.94V447.128C1567.94 435.01 1557.57 428.519 1548.56 428.519H1499.89ZM1334.95 518.536H1325.49V457.947H1334.95V518.536ZM1529.18 518.536H1519.72V503.389H1529.18V518.536ZM1723.41 518.536H1713.95V457.947H1723.41V518.536ZM1432.29 473.095H1422.83V457.947H1432.29V473.095Z" fill="url(#paint0_linear_11_70)"/>
</g>
<defs>
<linearGradient id="paint0_linear_11_70" x1="1575" y1="0" x2="1575" y2="1550" gradientUnits="userSpaceOnUse">
<stop stop-color="#16141F"/>
<stop offset="0.2" stop-color="#1B1828"/>
<stop offset="0.8" stop-color="#1B1828"/>
<stop offset="1" stop-color="#16141F"/>
</linearGradient>
<clipPath id="clip0_11_70">
<rect width="3150" height="1550" fill="white"/>
</clipPath>
</defs>
</svg>
