<svg width="815" height="632" viewBox="0 0 815 632" fill="none" xmlns="http://www.w3.org/2000/svg">
<path d="M637.469 481.584C637.469 466.416 627.992 452.512 610.302 452.512H542.07C525.012 452.512 514.903 465.784 514.903 481.584V604.192C514.903 617.464 525.012 631.368 542.07 631.368C559.128 631.368 610.302 631.368 610.934 631.368C624.202 631.368 637.469 620.624 637.469 604.192V481.584ZM583.136 587.128H569.868V497.384H583.136V587.128Z" fill="white"/>
<path d="M434.035 452.512H379.702V464.52H369.593V508.76H379.702V604.824C379.702 619.36 391.074 632 406.868 632H475.101C490.264 632 502.267 620.624 502.267 604.824V520.136H447.934V587.128H434.667V508.76H502.899V464.52H434.667V452.512H434.035Z" fill="white"/>
<path d="M304.519 587.128H291.252V452.512H236.919V604.192C236.919 617.464 247.659 631.368 264.085 631.368C280.512 631.368 332.318 631.368 332.95 631.368C347.481 631.368 359.484 618.096 359.484 604.192V452.512H305.151V587.128H304.519Z" fill="white"/>
<path d="M195.221 452.512H126.988C113.089 452.512 99.8217 463.256 99.8217 481.584V508.128H154.155V496.752H167.422V519.504H126.988C110.562 519.504 99.8217 532.776 99.8217 548.576V604.192C99.8217 619.992 111.826 631.368 126.988 631.368H222.388V481.584C222.388 465.152 211.015 452.512 195.221 452.512ZM168.054 587.128H154.787V564.376H168.054V587.128Z" fill="white"/>
<path d="M811.209 412.064V338.752H756.876V395H743.609V327.376H811.841V283.136H743.609V262.28H689.275V283.136H678.535V327.376H689.275V411.432C689.275 424.072 699.384 438.608 716.442 438.608H784.674C801.733 438.608 811.841 424.704 811.841 411.432L811.209 412.064Z" fill="white"/>
<path d="M573.027 262.912C559.128 262.912 545.86 274.288 545.86 290.088V439.24H600.825V362.136H668.426V317.896H600.825V307.152H668.426V262.912H573.027Z" fill="white"/>
<path d="M532.593 412.064V384.256H477.628V395H464.36V372.88H532.593V290.088C532.593 273.656 518.062 262.912 505.426 262.912H437.194C421.399 262.912 410.027 276.184 410.027 290.088V412.064C410.027 426.6 420.767 439.24 437.194 439.24H505.426C518.694 439.24 532.593 429.128 532.593 412.064ZM463.729 306.52H476.996V328.64H463.729V306.52Z" fill="white"/>
<path d="M259.663 412.064V338.752H205.33V395H192.062V327.376H260.295V283.136H192.062V262.28H137.729V283.136H126.988V327.376H137.729V411.432C137.729 424.704 148.469 438.608 164.895 438.608H233.128C249.554 438.608 260.295 425.336 260.295 411.432L259.663 412.064Z" fill="white"/>
<path d="M613.461 0V44.24H573.027C560.391 44.24 545.86 54.352 545.86 71.416V192.76C545.86 208.56 558.496 219.936 573.027 219.936H668.426V0H614.093H613.461ZM613.461 175.696H600.194V87.216H613.461V175.696Z" fill="white"/>
<path d="M531.961 71.416C531.961 58.144 521.221 44.24 504.795 44.24C488.368 44.24 472.574 48.032 464.36 54.984V44.24H410.027V219.936H464.36V87.216H477.628V219.936H532.593V71.416H531.961Z" fill="white"/>
<path d="M395.496 71.416C395.496 53.72 380.965 44.24 368.329 44.24H300.097C283.039 44.24 272.93 58.144 272.93 71.416V98.592H327.264V87.216H340.531V109.336C340.531 109.336 315.26 109.336 300.097 109.336C284.934 109.336 272.93 121.976 272.93 136.512V192.128C272.93 207.928 285.566 219.304 300.097 219.304H395.496V70.784V71.416ZM341.163 175.696H327.895V153.576H341.163V175.696Z" fill="white"/>
<path d="M368.961 262.28H327.895V231.944H259.663V153.576C259.663 144.728 255.24 136.512 248.291 131.456C258.399 124.504 259.663 115.656 259.663 109.968V71.416C259.663 56.248 247.659 44.24 232.496 44.24H137.097V248.376H191.43V153.576H204.698V235.104C204.698 249.008 215.438 262.28 233.128 262.28H272.93V438.608H327.264V305.888H340.531V438.608H395.496V289.456C395.496 274.288 383.492 262.28 368.329 262.28H368.961ZM205.33 109.336H192.062V87.216H205.33V109.336Z" fill="white"/>
<path d="M123.198 248.376V44.24H27.7985C13.2675 44.24 0.631797 56.248 0.631797 71.416V192.76C0.631797 207.296 12.0039 219.936 27.7985 219.936H68.2326V231.944H0V275.552H95.3992C111.194 275.552 122.566 262.28 122.566 248.376H123.198ZM68.8643 175.696H55.5969V87.216H68.8643V175.696Z" fill="white"/>
</svg>
