<svg width="883" height="684" viewBox="0 0 883 684" fill="none" xmlns="http://www.w3.org/2000/svg">
<g clip-path="url(#clip0_11_70)">
<path d="M883 684H0V0H883V684ZM415.701 490.521H405.593V534.76H415.701V630.824C415.701 645.36 427.074 658 442.868 658H511.101C526.263 658 538.267 646.624 538.268 630.824V546.136H483.935V613.128H470.667V534.76H538.899V490.521H470.667V478.512H415.701V490.521ZM162.988 478.512C149.089 478.512 135.821 489.256 135.821 507.584V534.128H190.155V522.752H203.423V545.504H162.988C146.562 545.504 135.821 558.776 135.821 574.576V630.192C135.821 645.992 147.826 657.368 162.988 657.368H258.388V507.584C258.388 491.152 247.015 478.512 231.221 478.512H162.988ZM272.919 630.192C272.919 643.464 283.659 657.368 300.085 657.368H368.949C383.48 657.368 395.484 644.096 395.484 630.192V478.512H341.151V613.128H327.252V478.512H272.919V630.192ZM578.069 478.512C561.011 478.512 550.903 491.784 550.903 507.584V630.192C550.904 643.464 561.012 657.368 578.069 657.368H646.934C660.201 657.368 673.469 646.624 673.469 630.192V507.584C673.469 492.416 663.992 478.512 646.302 478.512H578.069ZM204.055 613.128H190.787V590.376H204.055V613.128ZM619.136 613.128H605.868V523.384H619.136V613.128ZM473.193 288.912C457.399 288.912 446.027 302.184 446.027 316.088V438.064C446.028 452.6 456.767 465.24 473.193 465.24H541.427C554.694 465.24 568.593 455.128 568.593 438.064V410.256H513.628V421H500.36V398.88H568.593V316.088C568.593 299.656 554.062 288.912 541.427 288.912H473.193ZM609.027 288.912C595.128 288.912 581.86 300.288 581.86 316.088V465.24H636.825V388.136H704.427V343.896H636.825V333.152H704.427V288.912H609.027ZM173.729 309.136H162.988V353.376H173.729V437.432C173.729 450.704 184.469 464.608 200.896 464.608H269.128C285.554 464.608 296.295 451.336 296.295 437.432L295.663 438.064V364.752H241.329V421H228.062V353.376H296.295V309.136H228.062V288.28H173.729V309.136ZM173.097 274.376H227.431V179.576H240.697V261.104C240.697 275.008 251.438 288.28 269.128 288.28H308.931V464.608H363.264V331.888H376.531V464.608H431.496V315.456C431.496 300.288 419.492 288.28 404.329 288.28H363.896V257.944H295.663V179.576C295.663 170.728 291.24 162.512 284.291 157.456C294.399 150.504 295.663 141.656 295.663 135.968V97.416C295.663 82.248 283.659 70.2402 268.496 70.2402H173.097V274.376ZM725.275 309.136H714.535V353.376H725.275V437.432C725.275 450.072 735.384 464.608 752.441 464.608H820.675C837.733 464.608 847.841 450.704 847.841 437.432L847.209 438.064V364.752H792.876V421H779.608V353.376H847.841V309.136H779.608V288.28H725.275V309.136ZM512.996 354.64H499.729V332.521H512.996V354.64ZM63.7988 70.2402C49.2678 70.2402 36.6318 82.248 36.6318 97.416V218.76C36.6318 233.296 48.0043 245.936 63.7988 245.936H104.232V257.944H36V301.552H131.399C147.194 301.552 158.565 288.28 158.565 274.376H159.197V70.2402H63.7988ZM446.027 245.936H500.36V113.216H513.628V245.936H568.593V97.416H567.961C567.961 84.1441 557.221 70.2404 540.795 70.2402C524.369 70.2402 508.574 74.0324 500.36 80.9844V70.2402H446.027V245.936ZM649.461 70.2402H609.027C596.392 70.2402 581.86 80.352 581.86 97.416V218.76C581.86 234.56 594.496 245.936 609.027 245.936H704.427V26H649.461V70.2402ZM336.097 70.2402C319.039 70.2404 308.931 84.1441 308.931 97.416V124.592H363.264V113.216H376.531V135.336C376.531 135.336 351.259 135.336 336.097 135.336C320.934 135.336 308.931 147.976 308.931 162.512V218.128C308.931 233.928 321.566 245.304 336.097 245.304H431.496V97.416C431.496 79.72 416.965 70.2402 404.329 70.2402H336.097ZM104.864 201.696H91.5967V113.216H104.864V201.696ZM377.163 201.696H363.896V179.576H377.163V201.696ZM649.461 201.696H636.193V113.216H649.461V201.696ZM241.329 135.336H228.062V113.216H241.329V135.336Z" fill="black"/>
</g>
<defs>
<clipPath id="clip0_11_70">
<rect width="883" height="684" fill="white"/>
</clipPath>
</defs>
</svg>
