<svg width="815" height="632" viewBox="0 0 815 632" fill="none" xmlns="http://www.w3.org/2000/svg">
<path d="M542.07 453.012H610.302C619.004 453.012 625.655 456.427 630.138 461.685C634.63 466.953 636.969 474.1 636.969 481.584V604.192C636.969 620.325 623.949 630.868 610.934 630.868H542.07C525.333 630.868 515.403 617.234 515.403 604.192V481.584L515.41 480.855C515.561 473.343 518.039 466.48 522.465 461.453C527.027 456.271 533.681 453.012 542.07 453.012ZM569.368 587.628H583.635V496.884H569.368V587.628Z" stroke="white"/>
<path d="M434.166 453.012V465.02H502.399V508.26H434.166V587.628H448.434V520.636H501.768V604.823C501.768 620.34 489.995 631.5 475.101 631.5H406.868C391.365 631.5 380.201 619.099 380.201 604.823V508.26H370.093V465.02H380.201V453.012H434.166Z" stroke="white"/>
<path d="M290.752 453.012V587.628H305.651V453.012H358.984V604.192C358.984 617.842 347.182 630.868 332.95 630.868H264.086C247.972 630.868 237.419 617.226 237.419 604.192V453.012H290.752Z" stroke="white"/>
<path d="M126.989 453.012H195.221C210.703 453.012 221.887 465.39 221.887 481.584V630.868H126.989C112.094 630.868 100.322 619.708 100.322 604.192V548.576C100.322 532.999 110.889 520.004 126.989 520.004H167.922V496.252H153.655V507.628H100.322V481.584L100.331 480.743C100.73 463.213 113.571 453.012 126.989 453.012ZM154.286 587.628H168.554V563.876H154.286V587.628Z" stroke="white"/>
<path d="M743.108 262.78V283.636H811.342V326.876H743.108V395.5H757.376V339.252H810.71V413.271L811.311 412.669C810.707 425.322 800.883 438.108 784.675 438.108H716.442C699.712 438.108 689.775 423.851 689.775 411.432V326.876H679.035V283.636H689.775V262.78H743.108Z" stroke="white"/>
<path d="M573.027 263.412H667.927V306.652H600.325V318.396H667.927V361.636H600.325V438.74H546.36V290.088C546.36 274.586 559.382 263.412 573.027 263.412Z" stroke="white"/>
<path d="M437.194 263.412H505.427C517.832 263.412 532.093 273.976 532.094 290.088V372.38H463.86V395.5H478.128V384.756H532.094V412.064C532.093 428.808 518.464 438.74 505.427 438.74H437.194C421.067 438.74 410.527 426.347 410.527 412.064V290.088C410.527 276.437 421.698 263.412 437.194 263.412ZM463.228 329.14H477.496V306.02H463.228V329.14Z" stroke="white"/>
<path d="M191.562 262.78V283.636H259.795V326.876H191.562V395.5H205.829V339.252H259.163V413.271L259.765 412.669C259.151 425.866 248.761 438.108 233.128 438.108H164.896C148.783 438.108 138.229 424.467 138.229 411.432V326.876H127.488V283.636H138.229V262.78H191.562Z" stroke="white"/>
<path d="M667.927 0.5V219.436H573.027C558.757 219.436 546.36 208.269 546.36 192.76V71.416C546.36 54.6792 560.614 44.7402 573.027 44.7402H613.961V0.5H667.927ZM599.693 176.196H613.961V86.7158H599.693V176.196Z" stroke="white"/>
<path d="M463.86 44.74V56.0623L464.683 55.366C468.711 51.9568 474.634 49.2958 481.623 47.489C488.605 45.684 496.618 44.74 504.795 44.74C520.908 44.7401 531.462 58.3814 531.462 71.4158V71.9158H532.094V219.436H478.128V86.7156H463.86V219.436H410.527V44.74H463.86Z" stroke="white"/>
<path d="M300.097 44.74H368.33C380.751 44.7401 394.995 54.0547 394.996 71.4158V218.804H300.097C285.827 218.804 273.43 207.637 273.43 192.128V136.512C273.43 122.245 285.218 109.836 300.097 109.836H341.031V86.7156H326.763V98.0916H273.43V71.4158C273.43 58.3731 283.36 44.74 300.097 44.74ZM327.395 176.196H341.663V153.076H327.395V176.196Z" stroke="white"/>
<path d="M232.496 44.74C247.383 44.7401 259.162 56.5239 259.162 71.4158V109.968C259.162 115.564 257.929 124.22 248.007 131.044L247.425 131.444L247.996 131.86C254.822 136.826 259.162 144.895 259.162 153.576V232.444H327.396V262.78H368.329L369.025 262.789C383.581 263.149 394.996 274.796 394.996 289.456V438.108H341.031V305.388H326.764V438.108H273.43V261.78H233.128C215.73 261.78 205.198 248.747 205.198 235.104V153.076H190.93V247.876H137.597V44.74H232.496ZM191.562 109.836H205.829V86.7156H191.562V109.836Z" stroke="white"/>
<path d="M27.7988 44.74H122.697V247.876H122.065V248.376C122.065 262.027 110.895 275.051 95.3994 275.052H0.5V232.444H68.7324V219.436H27.7988C12.2956 219.436 1.13184 207.035 1.13184 192.76V71.4158C1.13196 56.5314 13.5366 44.74 27.7988 44.74ZM55.0967 176.196H69.3643V86.7156H55.0967V176.196Z" stroke="white"/>
</svg>
