<?xml version="1.0" encoding="utf-8"?>
<!-- Generator: Adobe Illustrator 27.7.0, SVG Export Plug-In . SVG Version: 6.00 Build 0)  -->
<svg version="1.1" id="レイヤー_1" xmlns="http://www.w3.org/2000/svg" xmlns:xlink="http://www.w3.org/1999/xlink" x="0px"
	 y="0px" width="480.2739868px" height="66.3013687px" viewBox="0 0 480.2739868 66.3013687"
	 style="enable-background:new 0 0 480.2739868 66.3013687;" xml:space="preserve">
<style type="text/css">
	.st0{fill:#FFFFFF;}
</style>
<g>
	<g>
		<path class="st0" d="M78.7197037,54.3409958c-4.6332321,4.0772171-10.9343872,6.6718102-17.6061745,6.6718102
			s-12.9729424-2.4092598-17.6061783-6.6718102c-4.2625275-4.2625504,9.4517403-19.2741432,17.420826-25.3899765l0,0
			C69.2679672,35.0668602,82.9822388,50.0784454,78.7197037,54.3409958 M40.1714211,50.2637749
			C40.1714211,50.2637749,40.1714211,50.4491081,40.1714211,50.2637749
			C40.0478783,50.3873253,40.0478783,50.3873253,40.1714211,50.2637749
			c-3.5212021-4.4478798-5.5598335-10.0077248-5.5598335-16.123558c0-7.4131279,2.965229-14.0849476,7.9690857-18.9034824h0.1853523
			c0.3706245-0.1853266,3.1505814-1.1119709,11.3050156,7.0424767l0,0
			C48.5112114,28.7656975,38.1327934,43.962616,40.1714211,50.2637749 M80.0170059,15.2367344
			c4.818512,4.8185349,7.9690857,11.4903545,7.9690857,18.9034901c0,6.1158257-2.0386276,11.6756783-5.3745575,16.1235619
			h-0.1853485v-0.1853333c2.0386276-6.3011589-8.3397903-21.4980831-13.7142715-27.9845734l0,0
			c7.9690857-8.1544476,10.7490387-7.2278042,11.3050156-6.8571501c0-0.1853266,0,0,0,0 M47.2139091,11.5301695
			C47.2139091,11.5301695,47.2139091,11.3448429,47.2139091,11.5301695
			c4.0772552-2.594595,8.5251389-4.0772238,13.8996201-4.0772238s9.822361,1.4826288,13.8996239,3.8918915v0.1853275h-0.1853561
			c-5.189209-1.1119709-12.9729424,3.3359108-13.7142677,3.8918962l0,0
			c-0.7413254-0.5559855-8.5251389-5.0038671-13.8996201-3.8918962l0,0 M187.6968994,34.7939911
			c0-2.3037567-0.2559662-4.6075153-1.02388-6.6552982c-0.7678986-2.0477829-1.7917786-3.5836182-3.0716248-5.1194592
			s-3.0716248-2.5597324-4.8634949-3.3276501c-1.7917786-0.7679176-3.8396149-1.0238914-6.1433411-1.0238914
			s-4.3515625,0.2559738-6.1433411,1.0238914s-3.3276825,1.7918091-4.8634949,3.3276501
			c-1.2798462,1.535841-2.5596924,3.3276501-3.0716248,5.1194592c-0.7679138,2.0477829-1.02388,4.0955677-1.02388,6.6552982
			c0,2.3037529,0.2559662,4.6075172,1.02388,6.6553001c0.7678986,2.0477829,1.7917786,3.5836182,3.0716248,5.1194649
			c1.2798462,1.5358429,3.0716248,2.5597305,4.8634949,3.3276482c1.7917786,0.7679176,3.8396149,1.0238876,6.1433411,1.0238876
			s4.3515625-0.25597,6.1433411-1.0238876s3.3276825-1.7918129,4.8634949-3.3276482
			c1.2798462-1.5358353,2.3037262-3.327652,3.0716248-5.1194649
			C187.4409332,39.4015083,187.6968994,37.0977554,187.6968994,34.7939911 M180.017746,43.4970741L180.017746,43.4970741
			c-1.7917786,2.0477829-4.3515625,3.327652-7.4231873,3.327652s-5.6314087-1.0238876-7.4231873-3.327652
			c-1.7917786-2.0477829-2.8156586-5.1194649-2.8156586-8.703083s1.02388-6.6552982,2.8156586-8.7030811
			s4.3515625-3.3276501,7.4231873-3.3276501s5.6314087,1.0238914,7.4231873,3.3276501
			c1.7917786,2.0477829,2.8156586,5.1194592,2.8156586,8.7030811
			C182.8334045,38.3776093,182.065506,41.4492912,180.017746,43.4970741 M154.4204254,36.841774
			c-0.7679138-1.2798653-2.3037262-2.3037529-3.8396149-2.8157005c2.5596924-1.5358391,4.0955811-3.839592,4.0955811-6.6552925
			c0-2.3037586-0.7678986-4.3515415-2.5596924-5.8873768c-1.7917786-1.5358353-4.0955811-2.3037586-7.1672211-2.3037586h-14.078537
			v13.3105927h-4.0955887l-2.8156586,3.8395996h6.9112473v13.8225365h14.5904846
			c3.3276825,0,5.8873749-0.7679176,7.6791534-2.3037529s2.8156586-3.8395996,2.8156586-6.3993187
			c0-1.7918167-0.5119324-3.327652-1.5358124-4.6075172 M135.734436,23.2752132h8.9590759
			c1.7917938,0,3.0717163,0.5119438,4.0955963,1.2798653c1.0238647,0.7679234,1.2798462,1.7918091,1.2798462,3.3276501
			s-0.5119476,2.8157063-1.2798462,3.5836182c-0.7679138,0.7679176-2.3037262,1.2798653-4.0955963,1.2798653h-8.9590759V23.2752132z
			 M149.5569305,45.0329094c-1.02388,0.7679176-2.5596924,1.2798653-4.3515625,1.2798653h-9.4710083v-9.7269669h9.4710083
			c2.04776,0,3.3276825,0.5119476,4.3515625,1.2798653s1.5358124,2.0477829,1.5358124,3.5836182
			C151.0927429,42.9851379,150.5808105,44.0090218,149.5569305,45.0329094 M200.2396393,37.6097031l-9.2150574,12.5426712
			h-5.3754272l11.7747345-16.1263008l-10.7508698-14.8464336h5.3754425l8.1910858,11.2628117l8.1911011-11.2628117h5.3754272
			l-10.7508545,14.8464336l11.7747345,16.1263008h-5.3754272c-0.2559662,0-9.2150574-12.5426712-9.2150574-12.5426712H200.2396393z
			 M116.7923965,34.0260811l11.7747421,16.1263046h-5.3754349l-9.2150497-12.5426826l-9.2150497,12.5426712h-5.3754349
			l11.7747421-16.1263008l-10.4948959-14.8464336h5.1194611l8.1911774,11.2628155l8.1911697-11.2628098h5.3754349
			L116.7923965,34.0260811L116.7923965,34.0260811z M253.7414856,19.1050301h22.2696533v4.3515415h-17.4061584v8.9590511h15.3583984
			v3.8395996h-15.3583984v9.7269707h17.4061584v4.3515472h-22.2696533
			C253.7414856,50.3337402,253.7414856,19.1050358,253.7414856,19.1050301z M249.9018707,41.6306572
			c0,2.8157005-1.02388,5.1194611-3.3276825,6.9112663c-2.0477448,1.5358353-5.1194611,2.5597343-8.9590759,2.5597343
			c-4.0955963,0-7.4231873-1.0238991-9.4710236-2.8157043c-2.3037262-1.7918129-3.3276825-4.6075134-3.5836487-8.1911316h4.8634949
			c0,2.3037605,0.7679138,4.0955658,2.04776,5.1194611c1.2798462,1.0238991,3.5836487,1.7918167,6.1433411,1.7918167
			c2.3037109,0,4.0955811-0.5119476,5.3754272-1.2798653s1.7917786-2.0477867,1.7917786-3.8395996
			c0-1.2798653-0.5119324-2.3037529-1.5358124-3.071682c-1.02388-0.7679176-2.8156586-1.2798653-5.3754272-2.0477829
			l-2.5596924-0.5119476c-3.0717163-0.5119476-5.6314087-1.7918129-7.1672211-3.071682
			c-1.5358124-1.5358391-2.5596924-3.5836163-2.5596924-6.1433487s1.02388-4.6075115,3.0717163-6.1433506
			c2.0477448-1.535841,4.6075134-2.3037586,7.9351196-2.3037586c4.0955811,0,7.1672211,0.7679176,9.2150574,2.5597324
			c2.0477448,1.7918148,3.071701,4.0955677,3.071701,7.1672421h-4.6075287
			c-0.2559662-2.0477829-0.7678986-3.3276443-2.0477448-4.3515415c-1.2798462-1.0238914-3.0717163-1.2798653-5.6314087-1.2798653
			c-2.0477448,0-3.5836487,0.2559738-4.6075287,1.0238914c-1.0238647,0.7679176-1.5358124,1.7918148-1.5358124,3.0716801
			c0,1.2798672,0.5119476,2.5597324,1.5358124,3.0716801c1.02388,0.7679176,2.8156738,1.535841,5.3754425,2.0477848
			l2.8156586,0.5119476c3.5836487,0.7679176,6.1433411,1.7918129,7.6791534,3.3276482
			c1.2798462,1.5358353,2.04776,3.583622,2.04776,5.8873825 M304.6801758,46.4941406l-0.2559814-4.8634949
			c0-1.7918129-0.5119324-3.071682-1.0238647-4.0955658c-0.7679138-1.0238876-1.7918091-1.7918167-3.0716553-2.0477867
			c1.5358276-0.5119476,2.8156738-1.5358391,3.8396301-2.8157005c1.0238647-1.2798653,1.2798462-2.8157005,1.2798462-4.8634834
			c0-2.5597324-1.0238647-4.8634853-2.8156738-6.3993263c-1.7917786-1.5358391-4.6075134-2.3037567-7.9351196-2.3037567h-13.5665894
			v30.9727249h4.8634949V37.2790985h8.9590759c1.7917786,0,3.0716248,0.5119476,3.8395996,1.2798653
			c0.7680054,0.7679176,1.2798462,2.3037529,1.2798462,4.0955696l0.2559814,3.3276482
			c0,1.7918167,0.2559814,3.071682,1.0238647,4.0955696h4.8634949c-1.2798462-0.76791-1.5357971-2.0477753-1.5357971-3.5836105
			 M298.5367432,32.1596565c-1.0238647,1.0238914-2.5596924,1.2798653-4.0955811,1.2798653h-8.9590759V23.2006035h8.4471436
			c2.0477295,0,3.5836487,0.5119476,4.6075134,1.2798653s1.5358276,2.0477848,1.5358276,3.5836201
			C300.0725708,29.8559017,299.5606079,31.1357689,298.5367432,32.1596565 M449.5608215,41.6306572
			c0,2.8157005-1.0238953,5.1194611-3.3276978,6.9112663c-2.0477295,1.5358353-5.1194458,2.5597343-8.9590759,2.5597343
			c-4.0955811,0-7.4231873-1.0238991-9.4710083-2.8157043c-2.3037415-1.7918129-3.3276978-4.6075134-3.5836487-8.1911316h4.8634949
			c0,2.3037605,0.7679138,4.0955658,2.04776,5.1194611c1.2798462,1.0238991,3.5836487,1.7918167,6.1433411,1.7918167
			c2.3037109,0,4.0955811-0.5119476,5.3754272-1.2798653s1.7917786-2.0477867,1.7917786-3.8395996
			c0-1.2798653-0.5119324-2.3037529-1.5358276-3.071682c-1.0238647-0.7679176-2.8157349-1.2798653-5.3754272-2.0477829
			l-2.5596924-0.5119476c-3.0716248-0.5119476-5.6314087-1.7918129-7.1672058-3.071682
			c-1.5358276-1.5358391-2.5596924-3.5836163-2.5596924-6.1433487s1.0238647-4.6075115,3.0716248-6.1433506
			c2.04776-1.535841,4.6075134-2.3037586,7.9351196-2.3037586c4.0955811,0,7.1672363,0.7679176,9.2150574,2.5597324
			c2.04776,1.7918148,3.0716248,4.0955677,3.0716248,7.1672421h-4.6075134
			c-0.2559814-2.0477829-0.7679138-3.3276443-2.04776-4.3515415c-1.2798462-1.0238914-3.0716248-1.2798653-5.6314087-1.2798653
			c-2.04776,0-3.5836487,0.2559738-4.6075134,1.0238914c-1.0238953,0.7679176-1.5358276,1.7918148-1.5358276,3.0716801
			c0,1.2798672,0.5119324,2.5597324,1.5358276,3.0716801c1.0238647,0.7679176,2.8156433,1.535841,5.3754272,2.0477848
			l2.8156738,0.5119476c3.5835571,0.7679176,6.1433411,1.7918129,7.6791382,3.3276482
			c1.2799377,1.5358353,2.0478516,3.583622,2.0478516,5.8873825 M395.0385742,33.951458l11.7747498,16.1263008h-5.3754272
			l-9.2150574-12.5426712l-9.2150574,12.5426712h-5.3754272l11.7747498-16.1262932l-10.750885-14.8464298h5.3754272
			l8.1911011,11.2628098l8.1911011-11.2628098h5.3754272l-10.7508545,14.8464336l0,0L395.0385742,33.951458z
			 M414.4925537,15.2654381h2.3037109V54.173336h-2.3037109V15.2654381z M309.2875977,19.1050301h4.8634949v30.9727287h-4.8634949
			C309.2875977,50.0777588,309.2875977,19.1050358,309.2875977,19.1050301z M368.6733398,41.6306572
			c0,2.8157005-1.0238647,5.1194611-3.3276672,6.9112663c-2.04776,1.5358353-5.1194763,2.5597343-8.9590759,2.5597343
			c-4.0956116,0-7.4231873-1.0238991-9.4710388-2.8157043c-2.3037109-2.0477905-3.3276672-4.8634949-3.3276672-8.447113h4.8634949
			c0,2.3037529,0.7679138,4.0955696,2.04776,5.1194534c1.2798462,1.0238991,3.5836487,1.7918167,6.1433411,1.7918167
			c2.3037109,0,4.0955811-0.5119476,5.3754272-1.2798653s1.7917786-2.0477867,1.7917786-3.8395996
			c0-1.2798653-0.5119324-2.3037529-1.5358276-3.071682c-1.0238647-0.7679176-2.8156433-1.2798653-5.3754272-2.0477829
			l-2.5596924-0.5119476c-3.0716248-0.5119476-5.6314087-1.7918129-7.1672058-3.071682
			c-1.5358276-1.5358391-2.5596924-3.5836163-2.5596924-6.1433487s1.0238647-4.6075115,3.0716248-6.1433506
			c2.04776-1.535841,4.6075134-2.3037586,7.9351196-2.3037586c4.0955811,0,7.1672363,0.7679176,9.2150574,2.5597324
			c2.04776,1.7918148,3.0716248,4.0955677,3.0716248,7.1672421H363.29776
			c-0.2559814-2.0477829-0.7679138-3.3276443-2.04776-4.3515415c-1.2798462-1.0238914-3.0716248-1.2798653-5.6314087-1.2798653
			c-2.04776,0-3.5836487,0.2559738-4.6075134,1.0238914c-1.0238953,0.7679176-1.5358276,1.7918148-1.5358276,3.0716801
			c0,1.2798672,0.5119324,2.5597324,1.5358276,3.0716801c1.0238647,0.7679176,2.8156433,1.535841,5.3754272,2.0477848
			l2.8156738,0.5119476c3.5836487,0.7679176,6.1433411,1.7918129,7.6791382,3.3276482
			c1.0239563,1.7918167,1.7918701,3.8395996,1.7918701,6.1433525 M318.7586365,19.1050301h22.2696228v4.3515415h-17.4061279
			v8.9590511h15.3583984v3.8395996h-15.3583984v9.7269707h17.4061279v4.3515472h-22.2696228
			C318.7586365,50.3337402,318.7586365,19.1050358,318.7586365,19.1050301z"/>
	</g>
</g>
</svg>
